# xmcd
#
# Track frame offsets: 
#        150
#        15712
#        28492
#        41895
#        57765
#        71125
#        81652
#        94012
#        106867
#        120922
#
# Disc length: 1790 seconds
#
# Revision: 2
# Processed by: cddbd v1.5.2PL0 Copyright (c) Steve Scherf et al.
# Submitted via: ExactAudioCopy v1.1
#
DISCID=8606fc0a
DTITLE=Barbara Mandrell - The Best Of Barbara Mandrell (MCA)
DYEAR=1979
DGENRE=Country
TTITLE0=Woman To Woman
TTITLE1=Love Is Thin Ice
TTITLE2=Hold Me
TTITLE3=After The Lovin'
TTITLE4=Married But Not To Each Other
TTITLE5=Sleeping Single In A Double Bed
TTITLE6=That's What Friends Are For
TTITLE7=Midnight Angel
TTITLE8=Standing Room Only
TTITLE9=Tonight
EXTD=
EXTT0=
EXTT1=
EXTT2=
EXTT3=
EXTT4=
EXTT5=
EXTT6=
EXTT7=
EXTT8=
EXTT9=
PLAYORDER=
